<svg xmlns="http://www.w3.org/2000/svg" width="24" height="24" viewBox="0 0 24 24" fill="none" 
    stroke="currentColor" stroke-width="2" stroke-linecap="round" stroke-linejoin="round" 
    class="lucide lucide-shield-off h-5 w-5 text-destructive mr-2" data-lov-id="src/pages/CardListPage.tsx:199:18" 
    data-lov-name="ShieldOff" data-component-path="src/pages/CardListPage.tsx" data-component-line="199" data-component-file="CardListPage.tsx" data-component-name="ShieldOff" 
    data-component-content="%7B%22className%22%3A%22h-5%20w-5%20text-destructive%20mr-2%22%7D"><path d="m2 2 20 20"></path
    ><path d="M5 5a1 1 0 0 0-1 1v7c0 5 3.5 7.5 7.67 8.94a1 1 0 0 0 .67.01c2.35-.82 4.48-1.97 5.9-3.71"></path>
    <path d="M9.309 3.652A12.252 12.252 0 0 0 11.24 2.28a1.17 1.17 0 0 1 1.52 0C14.51 3.81 17 5 19 5a1 1 0 0 1 1 1v7a9.784 9.784 0 0 1-.08 1.264"></path>
</svg>